<svg xmlns="http://www.w3.org/2000/svg" version="1.1" xmlns:xlink="http://www.w3.org/1999/xlink" xmlns:svgjs="http://svgjs.dev/svgjs" viewBox="0 0 800 800"><defs><filter id="uuunion-blur" x="-100%" y="-100%" width="400%" height="400%" color-interpolation-filters="sRGB">
        <feGaussianBlur in="SourceGraphic" stdDeviation="8.5 0" result="blur"></feGaussianBlur>
        <feDropShadow stdDeviation="46.769230769230774" in="blur" dx="38" dy="38" flood-color="hsl(221, 77%, 50%)" flood-opacity="0.43" x="0%" y="0%" width="100%" height="100%"></feDropShadow>
      </filter><filter id="uuunion-blur2" x="-100%" y="-100%" width="400%" height="400%" color-interpolation-filters="sRGB">
        <feGaussianBlur in="SourceGraphic" stdDeviation="8.5 0" result="blur"></feGaussianBlur>
        <feDropShadow stdDeviation="46.769230769230774" in="blur" dx="-38" dy="-38" flood-color="hsl(221, 77%, 50%)" flood-opacity="0.43" x="0%" y="0%" width="100%" height="100%"></feDropShadow>
      </filter><linearGradient gradientTransform="rotate(108, 0.5, 0.5)" x1="50%" y1="0%" x2="50%" y2="100%" id="uuunion-grad"><stop stop-color="hsl(225, 59%, 66%)" offset="10%"></stop><stop stop-color="hsl(221, 77%, 50%)" offset="90%"></stop></linearGradient><linearGradient gradientTransform="rotate(138, 0.5, 0.5)" x1="50%" y1="0%" x2="50%" y2="100%" id="uuunion-grad2"><stop stop-color="hsl(225, 59%, 66%)" offset="25%"></stop><stop stop-color="hsl(221, 77%, 50%)" offset="100%"></stop></linearGradient><linearGradient gradientTransform="rotate(289, 0.5, 0.5)" x1="50%" y1="0%" x2="50%" y2="100%" id="uuunion-grad3"><stop stop-color="hsl(225, 59%, 66%)" offset="0%"></stop><stop stop-color="hsl(221, 77%, 50%)" offset="75%"></stop></linearGradient></defs><path d="M-80 -86.97Q-65.18 -83.31 -50.37 -79 -35.55 -74.89 -20.74 -71.76 -5.93 -70.2 8.88 -70.52 23.69 -72.65 38.51 -76.19 53.32 -80.46 68.13 -84.64 82.95 -87.93 97.76 -89.7 112.57 -89.61 127.39 -87.68 142.2 -84.28 157.02 -80.06 171.83 -75.83 186.64 -72.39 201.46 -70.41 216.27 -70.27 231.08 -71.99 245.9 -75.24 260.71 -79.4 275.53 -83.68 290.34 -87.25 305.15 -89.43 319.97 -89.81 334.78 -88.3 349.59 -85.21 364.41 -81.11 379.22 -76.81 394.04 -73.11 408.85 -70.73 423.66 -70.13 438.48 -71.41 453.29 -74.34 468.1 -78.35 482.92 -82.68 497.73 -86.49 512.55 -89.06 527.36 -89.89 542.17 -88.83 556.99 -86.07 571.8 -82.15 586.61 -77.82 601.43 -73.91 616.24 -71.16 631.06 -70.1 645.87 -70.94 660.68 -73.51 675.5 -77.32 690.31 -81.65 705.12 -85.66 719.94 -88.58 734.75 -89.86 749.57 -89.25 764.38 -86.87 779.19 -83.17 794.01 -78.86 808.82 -74.77 823.63 -71.68 838.45 -70.18 853.26 -70.56 868.08 -72.75 868.89 -57.73 870.53 -42.72 872.86 -27.71 875.73 -12.69 878.91 2.31 882.16 17.32 885.26 32.34 887.97 47.35 890.09 62.36 891.47 77.38 891.99 92.39 891.63 107.41 890.41 122.42 888.42 137.43 885.8 152.45 882.76 167.46 879.51 182.47 876.3 197.49 873.36 212.5 870.91 227.52 869.14 242.53 868.16 257.54 868.06 272.56 868.84 287.57 870.45 302.58 872.76 317.6 875.61 332.61 878.78 347.63 882.04 362.64 885.15 377.65 887.88 392.67 890.02 407.68 891.43 422.69 891.99 437.71 891.66 452.72 890.47 467.74 888.51 482.75 885.91 497.76 882.88 512.78 879.64 527.79 876.42 542.8 873.47 557.82 871 572.83 869.19 587.85 868.18 602.86 868.05 617.87 868.8 632.89 870.38 647.9 872.66 662.91 875.49 677.93 878.66 692.94 881.92 707.95 885.04 722.97 887.78 737.98 889.95 753 891.39 768.01 891.98 783.02 891.69 798.04 890.53 813.05 888.59 828.06 886.02 843.08 883 858.09 879.76 873.11 876.54 888.12 861.59 890.57 846.65 891 831.7 889.32 816.76 885.85 801.81 881.26 786.86 876.43 771.92 872.29 756.97 869.61 742.03 868.93 727.08 870.37 712.13 873.64 697.19 878.14 682.24 882.99 667.3 887.27 652.35 890.15 637.4 891.09 622.46 889.91 607.51 886.82 592.57 882.43 577.62 877.57 562.67 873.18 547.73 870.09 532.78 868.9 517.84 869.83 502.89 872.71 487.94 876.99 473 881.84 458.05 886.33 443.11 889.62 428.16 891.06 413.21 890.38 398.27 887.72 383.32 883.57 368.38 878.74 353.43 874.15 338.48 870.68 323.54 868.99 308.59 869.41 293.65 871.86 278.7 875.86 263.75 880.66 248.81 885.33 233.86 888.97 218.92 890.9 203.97 890.74 189.02 888.52 174.08 884.67 159.13 879.92 144.19 875.19 129.24 871.38 114.29 869.22 99.35 869.12 84.4 871.1 69.46 874.79 54.51 879.48 39.56 884.26 24.62 888.23 9.67 890.62 -5.26 890.98 -20.21 889.23 -35.16 885.72 -50.1 881.11 -65.05 876.28 -80 872.17 -80 857.18 -80 842.2 -80 827.21 -80 812.22 -80 797.24 -80 782.25 -80 767.26 -80 752.28 -80 737.29 -80 722.3 -80 707.32 -80 692.33 -80 677.34 -80 662.36 -80 647.37 -80 632.38 -80 617.4 -80 602.41 -80 587.42 -80 572.44 -80 557.45 -80 542.46 -80 527.48 -80 512.49 -80 497.5 -80 482.52 -80 467.53 -80 452.54 -80 437.55 -80 422.57 -80 407.58 -80 392.59 -80 377.61 -80 362.62 -80 347.63 -80 332.65 -80 317.66 -80 302.67 -80 287.69 -80 272.7 -80 257.71 -80 242.73 -80 227.74 -80 212.75 -80 197.77 -80 182.78 -80 167.79 -80 152.81 -80 137.82 -80 122.83 -80 107.85 -80 92.86 -80 77.87 -80 62.89 -80 47.9 -80 32.91 -80 17.92 -80 2.94 -80 -12.04 -80 -27.03 -80 -42.01 -80 -57 -80 -71.99 -80 -86.97" fill="url(#uuunion-grad)"></path><path d="M-80 -86.97Q-80 -71.99 -80 -57 -80 -42.01 -80 -27.03 -80 -12.04 -80 2.94 -80 17.92 -80 32.91 -80 47.9 -80 62.89 -80 77.87 -80 92.86 -80 107.85 -80 122.83 -80 137.82 -80 152.81 -80 167.79 -80 182.78 -80 197.77 -80 212.75 -80 227.74 -80 242.73 -80 257.71 -80 272.7 -80 287.69 -80 302.67 -80 317.66 -80 332.65 -80 347.63 -80 362.62 -80 377.61 -80 392.59 -69.89 395.07 -59.79 397.97 -49.68 401.05 -39.58 404.03 -29.47 406.67 -19.37 408.73 -0.43 410.37 2.84 410.48 15.36 403.3 27.85 394.86 40.29 385.44 52.7 375.47 65.07 365.44 77.39 355.86 89.67 347.16 101.92 339.67 114.12 333.56 126.29 328.8 138.44 325.2 150.55 322.39 162.65 319.92 174.73 317.3 186.81 314.03 198.89 309.72 210.98 304.11 223.09 297.13 235.22 288.87 247.39 279.6 259.6 269.72 271.85 259.71 284.16 250.09 296.54 241.28 308.98 233.64 321.49 227.34 334.07 222.4 346.73 218.62 359.47 215.69 372.28 213.16 385.17 210.54 398.13 207.34 411.16 203.16 424.25 197.72 437.4 190.93 450.6 182.85 463.83 173.73 477.09 163.95 490.37 153.98 503.66 144.32 516.94 135.42 530.21 127.63 543.44 121.15 556.63 116.02 569.77 112.07 582.84 109.01 595.83 106.41 608.74 103.78 621.54 100.64 634.24 96.58 646.83 91.31 659.3 84.7 671.65 76.8 683.87 67.83 695.97 58.16 707.94 48.24 719.79 38.56 731.52 29.57 743.15 21.64 754.67 14.99 766.11 9.67 777.47 5.55 788.76 2.35 800 -0.32 796.55 -17.82 793.46 -35.32 791.02 -52.82 789.48 -70.32 789 -87.82 789.62 -105.32 791.28 -122.82 793.82 -140.31 779.02 -144.45 764.22 -147.75 749.41 -149.58 734.61 -149.59 719.81 -147.79 705.01 -144.52 690.21 -140.39 675.41 -136.18 660.6 -132.7 645.8 -130.6 631 -130.27 616.2 -131.78 601.4 -134.85 586.6 -138.89 571.79 -143.14 556.99 -146.79 542.19 -149.16 527.39 -149.8 512.59 -148.58 497.79 -145.73 482.98 -141.81 468.18 -137.54 453.38 -133.73 438.58 -131.11 423.78 -130.17 408.98 -131.09 394.17 -133.69 379.37 -137.49 364.57 -141.76 349.77 -145.69 334.97 -148.55 320.17 -149.79 305.37 -149.18 290.56 -146.83 275.76 -143.19 260.96 -138.94 246.16 -134.89 231.36 -131.81 216.56 -130.28 201.75 -130.58 186.95 -132.67 172.15 -136.14 157.35 -140.34 142.55 -144.47 127.75 -147.76 112.94 -149.58 98.14 -149.59 83.34 -147.78 68.54 -144.5 53.74 -140.36 38.94 -136.16 24.13 -132.68 9.33 -130.59 -5.46 -130.27 -20.26 -131.8 -35.06 -134.87 -49.86 -138.91 -64.67 -143.16 -79.47 -146.81 -94.27 -149.17 -109.07 -149.79 -123.87 -148.57 -133.6 -133.52 -116.57 -119.42 -107.41 -112.36 -98.27 -104.58 -89.13 -96.09 -80 -86.97" fill="url(#uuunion-grad2)" filter="url(#uuunion-blur)"></path><path d="M809.19 399.65Q819.29 402.71 829.4 405.53 839.5 407.88 849.61 409.55 859.71 410.4 869.82 410.36 879.92 409.42 890.02 407.68 891.43 422.69 891.99 437.71 891.66 452.72 890.47 467.74 888.51 482.75 885.91 497.76 882.88 512.78 879.64 527.79 876.42 542.8 873.47 557.82 871 572.83 869.19 587.85 868.18 602.86 868.05 617.87 868.8 632.89 870.38 647.9 872.66 662.91 875.49 677.93 878.66 692.94 881.92 707.95 885.04 722.97 887.78 737.98 889.95 753 891.39 768.01 891.98 783.02 891.69 798.04 890.53 813.05 888.59 828.06 886.02 843.08 883 858.09 879.76 873.11 876.54 888.12 862.82 890.44 849.11 891.07 835.39 889.92 821.68 887.15 807.96 883.23 794.24 878.79 780.53 874.54 766.81 871.17 753.1 869.23 739.38 869.03 725.66 870.6 711.95 873.7 698.23 877.8 684.51 882.27 670.8 886.36 657.08 889.43 643.37 890.97 629.65 890.74 615.93 888.77 602.22 885.38 588.5 881.12 574.79 876.68 561.07 872.77 547.35 870.04 533.64 868.91 519.92 869.58 506.21 871.93 492.49 875.58 478.77 879.95 465.06 884.33 451.34 888 437.63 890.38 423.91 891.08 410.19 889.99 396.48 887.28 382.76 883.4 369.05 878.96 355.33 874.69 341.61 871.28 327.9 869.28 314.18 869.01 300.46 870.51 286.75 873.56 273.03 877.64 259.32 882.1 245.6 886.22 231.88 889.34 218.17 890.94 204.45 890.78 190.74 888.87 177.02 885.53 163.3 881.29 149.59 876.84 135.87 872.9 122.16 870.11 108.44 868.92 94.72 869.52 81.01 871.81 67.29 875.43 53.58 879.78 39.86 884.17 26.14 887.88 5.66 885.7 -0.92 871.07 -0.75 861.05 -0.58 851.04 -0.42 841.03 -0.29 831.02 0.11 816 0.91 811 13.6 804 26.29 795.64 38.96 786.2 51.62 776.09 64.25 765.85 76.86 756 89.43 747.02 101.97 739.28 114.46 732.97 126.91 728.1 139.31 724.48 151.65 721.77 163.95 719.47 176.2 717.08 188.4 714.07 200.56 710.01 212.67 704.61 224.74 697.75 236.78 689.53 248.8 680.2 260.8 670.19 272.79 659.98 284.77 650.12 296.76 641.08 308.77 633.23 320.8 626.79 332.87 621.79 344.98 618.04 357.14 615.22 369.36 612.86 381.65 610.45 394.02 607.47 406.46 603.49 418.99 598.21 431.61 591.49 444.32 583.4 457.12 574.2 470.01 564.27 482.99 554.11 496.05 544.24 509.2 535.14 522.42 527.2 535.7 520.64 549.05 515.49 562.44 511.61 575.87 508.68 589.32 506.25 602.78 503.82 616.24 500.87 629.68 496.97 643.1 491.79 656.47 485.21 669.78 477.26 683.02 468.18 696.17 458.34 709.23 448.23 722.17 438.36 735.01 429.21 747.71 421.18 760.29 414.49 772.72 409.2 785.02 405.19 803.18 400.9 809.19 399.65" fill="url(#uuunion-grad3)" filter="url(#uuunion-blur2)"></path></svg>